<svg xmlns="http://www.w3.org/2000/svg" width="514.618" height="514.618" viewBox="0 0 514.618 514.618"><title>pcl_icon_by</title><g id="氏名表記"><path d="M257.309,42A215.377,215.377,0,0,1,341.1,455.716,215.376,215.376,0,0,1,173.514,58.9a213.922,213.922,0,0,1,83.8-16.9m0-42C115.2,0,0,115.2,0,257.309S115.2,514.618,257.309,514.618s257.309-115.2,257.309-257.309S399.417,0,257.309,0Z" fill="#e57a99"/><path d="M264.517,282.464q0,39.718-16.285,61.036-15.785,21.32-44.1,21.322-23.054,0-34.826-14.659a31.082,31.082,0,0,0,1.755,9.6H116.7a71.5,71.5,0,0,0,1.755-13.593V158.528a88,88,0,0,0-1.755-13.859h55.119a79.089,79.089,0,0,0-1.755,13.859v52.24q12.779-8.526,30.316-8.529,28.308,0,45.6,20.257Q264.514,244.084,264.517,282.464ZM210.4,282.2q0-14.924-5.762-23.721-5.514-9.059-14.531-9.062-21.046,0-21.045,33.849,0,33.583,21.045,33.584,9.267,0,14.782-9.329Q210.4,298.461,210.4,282.2Z" fill="#4f4f4f"/><path d="M424.566,207.569,372.2,350.7q-14.034,38.113-47.851,38.114H280V334.7q3.759,2.136,12.027,2.133H310.57q8.516-.531,8.52-5.864,0-2.661-2.506-8.8L266.977,207.569h59.378q0,1.6,2.506,10.128L347.9,268.339l16.034-50.375a49.706,49.706,0,0,0,2.5-10.394Z" fill="#4f4f4f"/></g></svg>