<svg xmlns="http://www.w3.org/2000/svg" width="514.618" height="514.618" viewBox="0 0 514.618 514.618"><title>pcl_icon_nc</title><g id="非商用利用"><polygon points="379.35 122.293 309.226 122.293 259.667 229.885 205.546 122.293 132.41 122.293 189.939 215.858 132.589 215.858 132.589 266.352 212.218 266.352 225.01 289.457 225.01 293.877 132.589 293.877 132.589 346.022 225.01 346.022 225.01 410.601 286.073 410.601 286.073 346.022 382.208 346.022 382.208 293.877 286.073 293.877 286.073 289.457 299.275 266.352 382.208 266.352 382.208 215.858 324.033 215.858 379.35 122.293" fill="#4f4f4f"/><path d="M257.309,46.582c116.2,0,210.727,94.532,210.727,210.727S373.5,468.036,257.309,468.036,46.582,373.5,46.582,257.309,141.114,46.582,257.309,46.582m0-46.582C115.2,0,0,115.2,0,257.309S115.2,514.618,257.309,514.618s257.309-115.2,257.309-257.309S399.417,0,257.309,0Z" fill="#e57a99"/><rect x="233.648" y="15.228" width="46.583" height="471.594" transform="translate(-102.245 255.207) rotate(-45)" fill="#e57a99"/></g></svg>